<svg width="36" height="36" viewBox="0 0 36 36" fill="none" xmlns="http://www.w3.org/2000/svg">
<path d="M28.9052 7.99507C26.9102 7.06507 24.7502 6.39007 22.5002 6.00007C22.4804 5.99944 22.4608 6.00314 22.4427 6.01092C22.4245 6.01869 22.4083 6.03035 22.3952 6.04507C22.1252 6.54007 21.8102 7.18507 21.6002 7.68007C19.2137 7.32007 16.7867 7.32007 14.4002 7.68007C14.1902 7.17007 13.8752 6.54007 13.5902 6.04507C13.5752 6.01507 13.5302 6.00007 13.4852 6.00007C11.2352 6.39007 9.09018 7.06507 7.08018 7.99507C7.06518 7.99507 7.05018 8.01007 7.03518 8.02507C2.95518 14.1301 1.83018 20.0701 2.38518 25.9501C2.38518 25.9801 2.40018 26.0101 2.43018 26.0251C5.13018 28.0051 7.72518 29.2051 10.2902 30.0001C10.3352 30.0151 10.3802 30.0001 10.3952 29.9701C10.9952 29.1451 11.5352 28.2751 12.0002 27.3601C12.0302 27.3001 12.0002 27.2401 11.9402 27.2251C11.0852 26.8951 10.2752 26.5051 9.48018 26.0551C9.42018 26.0251 9.42018 25.9351 9.46518 25.8901C9.63018 25.7701 9.79518 25.6351 9.96018 25.5151C9.99018 25.4851 10.0352 25.4851 10.0652 25.5001C15.2252 27.8551 20.7902 27.8551 25.8902 25.5001C25.9202 25.4851 25.9652 25.4851 25.9952 25.5151C26.1602 25.6501 26.3252 25.7701 26.4902 25.9051C26.5502 25.9501 26.5502 26.0401 26.4752 26.0701C25.6952 26.5351 24.8702 26.9101 24.0152 27.2401C23.9552 27.2551 23.9402 27.3301 23.9552 27.3751C24.4352 28.2901 24.9752 29.1601 25.5602 29.9851C25.6052 30.0001 25.6502 30.0151 25.6952 30.0001C28.2752 29.2051 30.8702 28.0051 33.5702 26.0251C33.6002 26.0101 33.6152 25.9801 33.6152 25.9501C34.2752 19.1551 32.5202 13.2601 28.9652 8.02507C28.9502 8.01007 28.9352 7.99507 28.9052 7.99507ZM12.7802 22.3651C11.2352 22.3651 9.94518 20.9401 9.94518 19.1851C9.94518 17.4301 11.2052 16.0051 12.7802 16.0051C14.3702 16.0051 15.6302 17.4451 15.6152 19.1851C15.6152 20.9401 14.3552 22.3651 12.7802 22.3651ZM23.2352 22.3651C21.6902 22.3651 20.4002 20.9401 20.4002 19.1851C20.4002 17.4301 21.6602 16.0051 23.2352 16.0051C24.8252 16.0051 26.0852 17.4451 26.0702 19.1851C26.0702 20.9401 24.8252 22.3651 23.2352 22.3651Z" fill="#EC0988"/>
</svg>
