<svg width="36" height="36" viewBox="0 0 36 36" fill="none" xmlns="http://www.w3.org/2000/svg">
<path fill-rule="evenodd" clip-rule="evenodd" d="M18 3.375C9.924 3.375 3.375 9.924 3.375 18C3.375 26.076 9.924 32.625 18 32.625C26.076 32.625 32.625 26.076 32.625 18C32.6237 17.0201 32.5283 16.0426 32.34 15.081C32.2893 14.8258 32.1518 14.596 31.9508 14.4308C31.7498 14.2656 31.4977 14.1752 31.2375 14.175H18C17.7016 14.175 17.4155 14.2935 17.2045 14.5045C16.9935 14.7155 16.875 15.0016 16.875 15.3V20.7C16.875 21.321 17.379 21.825 18 21.825H23.8245C23.3971 22.4743 22.8649 23.0481 22.2495 23.523H22.2465L22.2495 23.526C21.0333 24.4676 19.5381 24.9774 18 24.975C16.1501 24.975 14.376 24.2401 13.0679 22.9321C11.7599 21.624 11.025 19.8499 11.025 18C11.025 16.1501 11.7599 14.376 13.0679 13.0679C14.376 11.7599 16.1501 11.025 18 11.025C19.776 11.025 21.39 11.694 22.626 12.792C22.8404 12.9828 23.1197 13.0845 23.4067 13.0761C23.6936 13.0678 23.9665 12.95 24.1695 12.747L27.987 8.928C28.0938 8.82118 28.178 8.69393 28.2346 8.55386C28.2912 8.41378 28.319 8.26375 28.3163 8.1127C28.3137 7.96165 28.2806 7.81269 28.2191 7.67469C28.1577 7.5367 28.069 7.4125 27.9585 7.3095C25.2591 4.78088 21.6987 3.37419 18 3.375ZM22.803 25.875C21.7433 26.522 20.564 26.9484 19.3355 27.1286C18.1071 27.3088 16.8549 27.2391 15.6541 26.9237C14.4533 26.6082 13.3285 26.0535 12.3472 25.2929C11.3659 24.5322 10.5484 23.5813 9.9435 22.497L7.428 24.435C8.53193 26.2495 10.0845 27.7491 11.9361 28.7895C13.7878 29.8298 15.8761 30.3759 18 30.375C20.7315 30.375 23.2575 29.49 25.305 27.99L22.803 25.875ZM27.0075 26.484C29.1739 24.1908 30.379 21.1546 30.375 18C30.375 17.478 30.3405 16.944 30.2775 16.425H19.125V19.575H25.629C25.809 19.575 25.9863 19.6182 26.1461 19.701C26.3059 19.7837 26.4436 19.9036 26.5474 20.0505C26.6513 20.1975 26.7185 20.3672 26.7432 20.5455C26.7679 20.7237 26.7495 20.9053 26.6895 21.075C26.2427 22.3358 25.5278 23.4847 24.594 24.4425L27.0075 26.484ZM7.53 11.4015C8.64437 9.6319 10.1893 8.17381 12.0204 7.16358C13.8514 6.15336 15.9088 5.624 18 5.625C20.838 5.625 23.445 6.588 25.5345 8.199L23.2845 10.449C21.7382 9.35845 19.8921 8.77365 18 8.775C16.4034 8.77436 14.834 9.18832 13.4454 9.97635C12.0568 10.7644 10.8967 11.8995 10.0785 13.2705L7.53 11.4015ZM6.495 13.4325C5.91821 14.8861 5.62297 16.4361 5.625 18C5.62349 19.4931 5.89285 20.9741 6.42 22.371L9.0705 20.328C8.87346 19.5677 8.77416 18.7854 8.775 18C8.775 17.091 8.907 16.212 9.1515 15.381L6.495 13.4325Z" fill="#EC0988"/>
</svg>
