<svg width="24" height="24" viewBox="0 0 24 24" fill="none" xmlns="http://www.w3.org/2000/svg">
<path fill-rule="evenodd" clip-rule="evenodd" d="M3.84792 17.6022L12.3158 7.01906C12.3158 7.01906 12.3192 5.24841 13.7699 4.00661C15.5382 2.49298 18.3176 2.74607 19.7748 4.36556C21.2318 5.98516 21.6269 8.62902 19.6349 10.5253C18.3948 11.7056 16.9984 11.6943 16.9984 11.6943L6.3963 20.177L5.35031 19.1521L3.4175 20.9562C3.4175 20.9562 3.25754 21.0894 3.09914 20.8913C2.94074 20.6934 3.01966 20.5233 3.01966 20.5233L4.92705 18.7064L3.84792 17.6022ZM5.83256 17.474L6.46918 18.0889L14.883 11.456C14.883 11.456 13.9864 10.9608 13.4487 10.3942C12.9109 9.82754 12.6002 9.05065 12.6002 9.05065L5.83256 17.474ZM14.3208 5.62464C14.3208 5.62464 12.8321 7.68123 14.5893 9.36206C16.3466 11.043 18.3465 9.63119 18.3465 9.63119C18.3465 9.63119 16.5475 9.21325 15.5715 8.24181C14.5953 7.27047 14.3208 5.62452 14.3208 5.62452V5.62464ZM14.9245 5.11856C14.9245 5.11856 15.339 6.70071 16.3351 7.7059C17.3313 8.71122 18.8957 9.12579 18.8957 9.12579C18.8957 9.12579 20.3381 6.93687 18.5296 5.27746C16.7209 3.61805 14.9245 5.11856 14.9245 5.11856Z" fill="#EC0988"/>
</svg>
