<svg width="36" height="36" viewBox="0 0 36 36" fill="none" xmlns="http://www.w3.org/2000/svg">
<path d="M25.6409 10.7188C26.5304 10.3963 26.9729 10.2808 27.2159 10.2388C27.2179 10.3188 27.2169 10.3798 27.2129 10.4218C26.8649 14.0878 25.3364 23.1073 24.5504 27.3043C24.3674 28.2868 24.2264 28.7548 23.2754 28.1968C22.6514 27.8293 22.0874 27.3673 21.4814 26.9713C19.4939 25.6678 16.6499 23.7283 16.8839 23.8453C14.9279 22.5553 15.7469 21.7663 16.8389 20.7133C17.0144 20.5438 17.1989 20.3668 17.3789 20.1793C17.4599 20.0953 17.8544 19.7293 18.4094 19.2118C20.1914 17.5558 23.6354 14.3533 23.7224 13.9828C23.7374 13.9228 23.7494 13.6948 23.6159 13.5763C23.4809 13.4563 23.2814 13.4968 23.1389 13.5298C22.9359 13.5758 19.6989 15.7153 13.4279 19.9483C12.5099 20.5783 11.6779 20.8853 10.9319 20.8693L10.9394 20.8738C9.95694 20.5273 8.97744 20.2288 7.99344 19.9288C7.34137 19.733 6.69133 19.5305 6.04344 19.3213L5.58144 19.1743C12.3719 16.2163 16.8944 14.2693 19.1609 13.3258C22.4519 11.9563 24.4049 11.1688 25.6409 10.7188ZM29.2754 7.82684C28.9562 7.57392 28.5839 7.39649 28.1864 7.30784C27.8864 7.23584 27.6014 7.21334 27.3869 7.21784C26.6714 7.22984 25.9049 7.43234 24.6179 7.89884C23.3054 8.37584 21.2894 9.19184 18.0089 10.5553C15.6939 11.5183 11.0929 13.5003 4.20594 16.5013C3.59994 16.7428 3.04644 17.0173 2.60844 17.3413C2.20344 17.6428 1.63794 18.1813 1.53444 19.0063C1.45644 19.6303 1.63794 20.2063 2.00694 20.6608C2.32794 21.0553 2.73894 21.2953 3.05244 21.4468C3.51744 21.6718 4.14444 21.8683 4.69494 22.0408C5.55444 22.3108 6.41094 22.5853 7.27344 22.8493C9.94044 23.6653 12.1364 24.3373 14.5514 25.9303C16.3229 27.0973 18.0614 28.3153 19.8359 29.4793C20.4839 29.9038 21.0884 30.3913 21.7559 30.7843C22.4879 31.2118 23.4149 31.6033 24.5459 31.4998C26.2529 31.3423 27.1409 29.7718 27.5009 27.8548C28.2824 23.6698 29.8364 14.5258 30.2009 10.7068C30.2343 10.2637 30.2156 9.81816 30.1454 9.37934C30.0566 8.77233 29.7468 8.21949 29.2754 7.82684Z" fill="#EC0988"/>
</svg>
