<svg width="24" height="24" viewBox="0 0 24 24" fill="none" xmlns="http://www.w3.org/2000/svg">
<path d="M4.5 20V20.5H5H19H19.5V20V19C19.5 18.0717 19.1313 17.1815 18.4749 16.5251C17.8185 15.8687 16.9283 15.5 16 15.5H8C7.07174 15.5 6.1815 15.8687 5.52513 16.5251C4.86875 17.1815 4.5 18.0717 4.5 19V20ZM12 3.5C10.9391 3.5 9.92172 3.92143 9.17157 4.67157C8.42143 5.42172 8 6.43913 8 7.5C8 8.56087 8.42143 9.57828 9.17157 10.3284C9.92172 11.0786 10.9391 11.5 12 11.5C13.0609 11.5 14.0783 11.0786 14.8284 10.3284C15.5786 9.57828 16 8.56087 16 7.5C16 6.43913 15.5786 5.42172 14.8284 4.67157C14.0783 3.92143 13.0609 3.5 12 3.5ZM7 7.5C7 6.17392 7.52678 4.90215 8.46447 3.96447C9.40215 3.02678 10.6739 2.5 12 2.5C13.3261 2.5 14.5979 3.02678 15.5355 3.96447C16.4732 4.90215 17 6.17392 17 7.5C17 8.82608 16.4732 10.0979 15.5355 11.0355C14.5979 11.9732 13.3261 12.5 12 12.5C10.6739 12.5 9.40215 11.9732 8.46447 11.0355C7.52678 10.0979 7 8.82608 7 7.5ZM3.5 19C3.5 17.8065 3.97411 16.6619 4.81802 15.818C5.66193 14.9741 6.80653 14.5 8 14.5H16C17.1935 14.5 18.3381 14.9741 19.182 15.818C20.0259 16.6619 20.5 17.8065 20.5 19V21.5H3.5V19Z" stroke="#EC0988"/>
</svg>
